<svg id="art" xmlns="http://www.w3.org/2000/svg" viewBox="0 0 130.01 157.56"><defs><style>.cls-1{fill:#d5a986;}.cls-2{fill:#ad7854;}.cls-3{fill:#e8be99;}.cls-4{fill:#0389b8;}.cls-5{fill:#00577f;}.cls-6{fill:#471d1c;}.cls-7{fill:#a43525;}.cls-8{fill:#dc4b3f;}.cls-9{fill:#1aa5cf;}.cls-10{fill:#004359;}.cls-11{fill:#f7d73d;}.cls-12{fill:#060b0c;}.cls-13{fill:#5b919f;}</style></defs><title>GWR-Superheroes-SUPERMAN</title><path class="cls-1" d="M291.19,134.83h-5.44l-.75,6.5s7.17,8.25,8,8.08,4.67-1.75,4.67-1.75l2.17-1.83,0-.91C294.68,143.93,290.69,141.36,291.19,134.83Z" transform="translate(-217.73 -109.2)"/><path class="cls-2" d="M298.33,138.33l-5.58-3.5h-1.56c-.49,6.53,3.49,9.1,8.63,10.09l-.06-2.68Z" transform="translate(-217.73 -109.2)"/><path class="cls-3" d="M332.15,116.85s2.39-2.39,4-3.67a40.06,40.06,0,0,1,5.43-3c.66-.38,4.8-1.19,5.16-.84a2.49,2.49,0,0,0,.48.41s.59-.15.53.61c0,.36-1.25,1-1.25,1l-1.41.92a16.49,16.49,0,0,0-1.52,1A11,11,0,0,0,342,114.8s1.1-.47,2.05-.93,1.49.31,1.36.49a16.82,16.82,0,0,1-4,3.09c-1.06.68-2.75,1.88-4.16,2a4.65,4.65,0,0,0-2.39.85,12.13,12.13,0,0,0-1.42-2.13C332.69,117.36,332.15,116.85,332.15,116.85Z" transform="translate(-217.73 -109.2)"/><path class="cls-4" d="M310,141.2c1-4,4-7,6-7a25.56,25.56,0,0,0,9.74-2c1.76-1.78,2.84-3.91,4.9-6.26a76.24,76.24,0,0,0,4.78-6.06s-2-4.27-3.37-3.5-6.65,4.35-10.63,6.4-6.47,6.23-7.8,7.59-2.75,1.88-5.49,3.67-8,6-8,6l1.59.94.18,3.58,1,4.22C306.48,147.14,309.42,144.68,310,141.2Z" transform="translate(-217.73 -109.2)"/><path class="cls-5" d="M316,134.2c-2,0-5,3-6,7-.58,3.48-3.52,5.95-7.05,7.6l.76,3.2a53.94,53.94,0,0,0,7.27-5.46,50.21,50.21,0,0,0,5.94-7.85c.89-1.45,3-2.56,6.47-4.61a11.64,11.64,0,0,0,2.36-1.84A25.56,25.56,0,0,1,316,134.2Z" transform="translate(-217.73 -109.2)"/><path class="cls-6" d="M280.67,155.33s-5.58-2.17-5.83-1.83-49.58,54.92-49.58,54.92c3.92-1.92,9.08-3.17,12.17,1.17,2.43,3.42,4.92,5.79,8.57,5.12a288.91,288.91,0,0,1,38.1-56.48C282.42,156.67,280.67,155.33,280.67,155.33Z" transform="translate(-217.73 -109.2)"/><path class="cls-7" d="M284.09,158.23A288.91,288.91,0,0,0,246,214.71a10.28,10.28,0,0,0,3.18-1.21c5.5-3.08,8.5-8.67,13.5-7.08s9.33.25,9.5-.08,2.25-5.67,3.83-8.75,2.08-4.42,2.08-4.42,5.08-11.92,6-15,3.67-14.08,2.92-16.33A11.57,11.57,0,0,0,284.09,158.23Z" transform="translate(-217.73 -109.2)"/><path class="cls-8" d="M276.83,146c-3.83,3.17-16.42,17.75-23.92,21.92s-9.25,5.33-14.92,13.25-9.08,10.25-12.83,14.92-8.17,13.67-7.33,16.25,6.17-4.92,5.25,11.83c0,0,8.67-16.75,19.17-23.17s10.08-13.92,16.42-21.17,19.67-26.75,19.67-26.75Z" transform="translate(-217.73 -109.2)"/><path class="cls-8" d="M248.65,230.35a13.68,13.68,0,0,0-7.13-2.95c-6,5.94-7.82,11.14-10.52,13.77-2.92,2.83-5.25,4.58-7.67,5.42s-3,1.92-2.67,4,1.08,3,.5,5.75-.25,6.42,1.08,8.17,3.25,3.08,3.58,1.67,1.58-7.33,2.5-9.33.73-4.25,3.17-6.75c1.17-1.2,3.57-3.4,6.32-5.8A31.75,31.75,0,0,1,248.65,230.35Z" transform="translate(-217.73 -109.2)"/><path class="cls-7" d="M251.75,233.76a14.73,14.73,0,0,0-3.09-3.42,31.75,31.75,0,0,0-10.83,13.94c4.68-4.08,10.41-8.72,12.93-10C251.1,234.07,251.42,233.92,251.75,233.76Z" transform="translate(-217.73 -109.2)"/><path class="cls-9" d="M263.67,219.16c-.45-4.25-1-8.49-1.61-12.77-.39.76-.75,1.52-1.06,2.28-2.83,7.08-5.33,10-7.17,11.5s-7.17,1.33-11.42,6.17c-.31.35-.6.7-.89,1.06a13.64,13.64,0,0,1,6.56,2.54C254.43,227.48,260.14,224.08,263.67,219.16Z" transform="translate(-217.73 -109.2)"/><path class="cls-4" d="M248.08,229.94a14.6,14.6,0,0,1,3.67,3.83c3.35-1.58,5.23-1.66,6.67-3.18s2.75-3.92,5-5.25l.77-.47c-.13-1.9-.32-3.8-.52-5.7C260.14,224.08,254.43,227.48,248.08,229.94Z" transform="translate(-217.73 -109.2)"/><path class="cls-10" d="M289.75,190.25c-.25-.08-18.58,3.92-18.58,3.92a59.7,59.7,0,0,0-9.11,12.22c.85,6.19,1.69,12.33,2.13,18.47,3-1.89,10.36-6.94,13.32-10.28,3.25-3.67,21.33-18.75,21.33-18.75S290,190.33,289.75,190.25Z" transform="translate(-217.73 -109.2)"/><path class="cls-8" d="M292,184.5a5.82,5.82,0,0,0-3.83-4.75c-3.67-1.5-9.08-4.42-9.08-4.42-1.75,0-1.25-1.75-2.75.42-2.22,3.2-3.61,2.39-1.33,4.67,1.17,1.17,3.67,3.75,4.75,3.83.76.06,8.83,1.88,10.17,2C290.83,186.33,292,184.5,292,184.5Z" transform="translate(-217.73 -109.2)"/><path class="cls-8" d="M294.87,203.15a9.32,9.32,0,0,0-2.54-1.62,30.57,30.57,0,0,0-7.94-1.15c-3.28,4.35-5.11,8.57-7.73,11.12-2.92,2.83-4.5,4.08-6.92,4.92s-3,1.92-2.67,4,1.08,3,.5,5.75-.25,6.42,1.08,8.17,2.58,1.75,2.92.33a63.25,63.25,0,0,1,2.5-8.25c.4-.87.63-1.85,1-2.84a14.8,14.8,0,0,1,.26-2C276.24,215.15,286.29,208.77,294.87,203.15Z" transform="translate(-217.73 -109.2)"/><path class="cls-7" d="M294.87,203.15c-8.59,5.62-18.63,12-19.54,18.38a14.8,14.8,0,0,0-.26,2,7,7,0,0,1,2.84-3.66c2.92-1.92,14.58-11.67,18.58-13.75l.24-.12A6.5,6.5,0,0,0,294.87,203.15Z" transform="translate(-217.73 -109.2)"/><path class="cls-8" d="M278.83,140.58c.25-.17.83-2.83,3.5-2.75a8.05,8.05,0,0,1,6.75,4.17c1.42,2.58,4.92,8.58,4.92,8.58l-5.83.5s-5.33-2.08-5.33-2.5S278.83,140.58,278.83,140.58Z" transform="translate(-217.73 -109.2)"/><path class="cls-5" d="M298.83,139c-1.32.91-3.37,6.38-3.41,6.49a49.45,49.45,0,0,0,8.07-4.58C302.74,139.74,300.16,138.09,298.83,139Z" transform="translate(-217.73 -109.2)"/><path class="cls-4" d="M288.33,170.53c-1.43,0-2.87,3.42-5,7,2.9,2.28,8,5.84,9,3.73,1.42-3,7.33-8.17,9.5-10.33a12.35,12.35,0,0,0,1.95-2.87A27.31,27.31,0,0,1,288.33,170.53Z" transform="translate(-217.73 -109.2)"/><path class="cls-9" d="M308.67,154.42c-.08-3.83-3.63-11.11-5.17-13.5h0a49.45,49.45,0,0,1-8.07,4.58h0l-.07,0,.07,0a21.69,21.69,0,0,0-3.22-.34c3.73,3.95,5.85,8.48,5.15,13.37-.73,5.09-9.91,5.42-19.09,6.38a8.17,8.17,0,0,1,.17,2.34c-.33,2.17-2.83,7.08-2.83,7.08l5.75,1.5s.84.73,2,1.69c2.09-3.57,3.52-7,5-7A27.31,27.31,0,0,0,303.78,168c1.29-2.45,2.29-5.31,2.63-5.88A14.85,14.85,0,0,0,308.67,154.42Z" transform="translate(-217.73 -109.2)"/><path class="cls-4" d="M292.18,145.16a52,52,0,0,0-13.6,1.76,43.8,43.8,0,0,1-1.17,8.83,5.77,5.77,0,0,0-.13.64c4-.1,8-.26,12.05-.45.67-.46,1.34-.92,2-1.41-.65.49-1.33.94-2,1.41,2.69-.13,5.38-.26,8.07-.41C297.08,151.78,295.14,148.29,292.18,145.16Z" transform="translate(-217.73 -109.2)"/><path class="cls-5" d="M277.29,156.39a18.45,18.45,0,0,0,.49,6.08,75.4,75.4,0,0,0,11.57-6.54C285.31,156.13,281.28,156.29,277.29,156.39Z" transform="translate(-217.73 -109.2)"/><path class="cls-4" d="M297.41,155.53c-2.68.15-5.38.28-8.07.41a75.4,75.4,0,0,1-11.57,6.54c.17.86.34,1.69.47,2.43,9.18-1,18.36-1.29,19.09-6.38A13,13,0,0,0,297.41,155.53Z" transform="translate(-217.73 -109.2)"/><path class="cls-8" d="M293.17,152.67c-.17.33-1.42,4.08-1.42,4.08s2.92,7.75,7.75,10.5c0,0,8.42-4.42,6.75-15.17l-2.67-2.25a20.89,20.89,0,0,0-5.33.92C295.83,151.58,293.17,152.67,293.17,152.67Z" transform="translate(-217.73 -109.2)"/><path class="cls-11" d="M296.33,152.83l-2.25,1L293,156.42s1.92,4.83,3.25,6.33l1.92-1.42s1.58,1.5,2.33,1.42,2.25-1,1.42-2.08-3.42-.67-4.83-1.17-2.92-1.83-2.5-3S296.33,152.83,296.33,152.83Z" transform="translate(-217.73 -109.2)"/><path class="cls-11" d="M299.67,152.42c-1.17.75-2,1.83-1.5,2.42s2.75.83,4.42,1.25,2.5,3.33,2.5,3.33a21,21,0,0,0,.75-4.25,13.18,13.18,0,0,0-.42-2.33L304,151.67a16.16,16.16,0,0,1,.67,2.75l-2,.92a7.9,7.9,0,0,0-.58-2.75C301.58,151.75,300.83,151.67,299.67,152.42Z" transform="translate(-217.73 -109.2)"/><path class="cls-11" d="M297.42,164.08,299.5,166l2.58-2a6.14,6.14,0,0,1-2.42.5A13.22,13.22,0,0,1,297.42,164.08Z" transform="translate(-217.73 -109.2)"/><path class="cls-4" d="M288,145s-3.17-5.25-7.58-5.33-7.08,1.67-8.67,3.92a24,24,0,0,0-8.08,3.17s-5,4.08-2.83,6.17,13.42,2.25,14.33,1.92,10.09,1.83,12.17-4.17C288.83,146.33,288,145,288,145Z" transform="translate(-217.73 -109.2)"/><path class="cls-9" d="M281.58,150.67A97,97,0,0,1,272,148c-3.33-1-8.25-1.25-11.58,1.33s-3.67,3.67-3.42,4.83,3.42,3.92,6.25,4.17c3.82.34,9.92-1,12.5-1.33s6.83-1.17,6.58-1.17.33-4.83.33-4.83Z" transform="translate(-217.73 -109.2)"/><path class="cls-3" d="M281.75,151a7,7,0,0,0-1.25,2.67c-.17,1.25-.08,2.25.58,2.58a5.26,5.26,0,0,0,2.25.08,1.2,1.2,0,0,0,.25.92,3.72,3.72,0,0,0,2.33.83,1.28,1.28,0,0,0,1.08-.75s1.17.58,1.5.08l.33-.5a2.29,2.29,0,0,0,1.33,0c.42-.25.42-1,.42-1s.67.5.92.17a6.13,6.13,0,0,0,.5-1.5,34.28,34.28,0,0,0-1.42-3.5c-.42-.67-1-.67-3.25-.42S281.75,151,281.75,151Z" transform="translate(-217.73 -109.2)"/><path class="cls-3" d="M298.33,124.08a41.14,41.14,0,0,1,2.5,4.33,1.85,1.85,0,0,1-.42,1.58s1.58,1.68,2,2.25c.25.33,0,.58-.25.92a2.46,2.46,0,0,1-.83.58s.58.83.42,1.17l-.17.33s.67.25.5.67a3.13,3.13,0,0,0-.08,1.17,1.62,1.62,0,0,1-.08,2.17c-1,1.08-4.33.67-5.5.58s-4-1.5-4.58-3-.42-1.17-.42-1.17a2.11,2.11,0,0,1-1.83-1.5c-.58-1.5-1.33-5.83-1.5-5.92s3.75-4.42,3.75-4.42Z" transform="translate(-217.73 -109.2)"/><path class="cls-12" d="M292.08,131.83c-.59-1.18-2.08.5-2.17,1.42a5.8,5.8,0,0,0,.92,2.67c.17.25-1-.25-1-.25A1.32,1.32,0,0,0,290,137s-1.5-.08-2-.67a1.14,1.14,0,0,0-.42,1.08,4.15,4.15,0,0,1-1.92-1.42c-.67-1-3.17-5.83-2.08-8.33s5-4.92,6.75-5.5,5.58-4,8.25-2.42,2,4.85,1.56,5.6c0,0-.14,1.4,1.28.4,0,0-1,2.1-2.86.94s-4.06-2.52-6.14-1.35a4.32,4.32,0,0,1,2.17,2.75c.25,1.75-.42,3-.25,3.92l.33,1.83-1.25.08A7.15,7.15,0,0,1,292.08,131.83Z" transform="translate(-217.73 -109.2)"/><path class="cls-11" d="M289.76,178.05l-1.7,3.09a13.67,13.67,0,0,1,3.35,2.77l1.58-3.17S292.71,179.9,289.76,178.05Z" transform="translate(-217.73 -109.2)"/><path class="cls-4" d="M267.37,188.29c-.32,5.17,2.9,10,6,10.63,6.08,1.33,13.33-1.83,15-2.5a8.87,8.87,0,0,1,1.91-.48,77.33,77.33,0,0,0,8.09-6.41C288.5,192.21,276.28,194.88,267.37,188.29Z" transform="translate(-217.73 -109.2)"/><path class="cls-9" d="M285.64,198.86c1.33-.78,2.65-1.58,3.92-2.44A10.16,10.16,0,0,0,285.64,198.86Z" transform="translate(-217.73 -109.2)"/><path class="cls-9" d="M305.76,192.76a8.71,8.71,0,0,0-.59-1.76c-1.08-1.92-2.69-2.13-5.75-4.33a37.74,37.74,0,0,0-16.5-6.42c-2.75-.25-12.17-1.83-14.75,4.5a11.12,11.12,0,0,0-.8,3.54c8.91,6.6,21.14,3.92,31,1.24a77.33,77.33,0,0,1-8.09,6.41,18.57,18.57,0,0,1,2.42-.19,9.67,9.67,0,0,0-3.11.67c-1.27.86-2.58,1.67-3.92,2.44l-.05.05c-.43.49-.82,1-1.19,1.47a30.57,30.57,0,0,1,7.94,1.15,9.93,9.93,0,0,1,2,1.18A27.45,27.45,0,0,0,305.76,192.76Z" transform="translate(-217.73 -109.2)"/><path class="cls-4" d="M294.33,202.71a6.62,6.62,0,0,1,2.4,3.34c3.88-2,6.87-3.65,7.85-4.71a13,13,0,0,0,1.75-5.17,17.63,17.63,0,0,0-.58-3.41A27.45,27.45,0,0,1,294.33,202.71Z" transform="translate(-217.73 -109.2)"/><path class="cls-8" d="M276.33,173.25c-1.42,1.67-10.43,10.23-9.27,16.23s2.68,7,2.68,7-1.25-7.17.83-11.08a10.31,10.31,0,0,1,9.25-5.5c2.92.25.83-1.92.5-2.08S276.33,173.25,276.33,173.25Z" transform="translate(-217.73 -109.2)"/><path class="cls-11" d="M288.42,177.25c-1.75-1-7.92-3.92-12.5-4.25l-1.83,2.5s8.52,2.24,14,5.65l1.7-3.09C289.36,177.8,288.92,177.54,288.42,177.25Z" transform="translate(-217.73 -109.2)"/><path class="cls-13" d="M299.52,123.93s.23-3-1.44-3.62a3.44,3.44,0,0,0-3.19.6s1.92-.57,2.67.23S299.06,121.49,299.52,123.93Z" transform="translate(-217.73 -109.2)"/></svg>